<svg width="24" height="24" viewBox="0 0 24 24" fill="none" xmlns="http://www.w3.org/2000/svg">
<path fill-rule="evenodd" clip-rule="evenodd" d="M3.23875 2.37625C4.1037 1.69827 5.08799 1.27499 6.16551 1.62478C7.09624 1.92713 7.80649 2.73944 8.41405 3.55691C9.02498 4.37897 9.56498 5.17769 9.84227 5.98269C10.1457 6.86398 10.1327 7.74389 9.70164 8.64724C9.38714 9.30607 9.20521 9.70381 9.11278 10.0125C9.03369 10.2768 9.05198 10.3771 9.07469 10.4505C9.11243 10.5717 9.22397 10.7858 9.58006 11.199C9.93264 11.6081 10.4367 12.1145 11.1606 12.8382C11.8844 13.5616 12.3907 14.0648 12.7998 14.4173C13.2139 14.774 13.4285 14.8851 13.5498 14.9226C13.6232 14.9453 13.7225 14.9634 13.9863 14.8845C14.295 14.7922 14.6927 14.6116 15.3515 14.2971C16.2553 13.8659 17.1359 13.8529 18.0176 14.1565C18.8223 14.4337 19.62 14.9727 20.4419 15.5833C21.2595 16.1907 22.073 16.9011 22.3755 17.8318C22.7253 18.9093 22.302 19.8939 21.624 20.7586C20.3647 22.3641 17.8761 22.8054 15.3047 22.3011C12.6463 21.7796 9.57043 20.2151 6.67674 17.322C3.78249 14.4283 2.21969 11.35 1.6992 8.69119C1.19617 6.12067 1.63626 3.63272 3.23875 2.37625ZM5.46971 3.76492C5.43187 3.75246 5.23695 3.66954 4.62742 4.14724C4.01755 4.62558 3.46691 6.01149 3.90672 8.25906C4.3296 10.4191 5.64402 13.1066 8.26756 15.7298C10.8917 18.3534 13.5785 19.6685 15.7383 20.0921C17.9847 20.5326 19.3714 19.9838 19.853 19.3699C20.3317 18.7594 20.2475 18.5648 20.2353 18.5276C20.1759 18.3445 19.9265 18.0034 19.1001 17.3894C18.2787 16.7793 17.7275 16.4359 17.2851 16.2835C16.9193 16.1575 16.6533 16.169 16.3213 16.3274C15.7083 16.6199 15.1406 16.8883 14.6308 17.0408C14.077 17.2064 13.5026 17.2649 12.8833 17.073C12.3116 16.8959 11.8136 16.5372 11.332 16.1223C10.8454 15.7032 10.2724 15.1313 9.56981 14.429C8.86716 13.7266 8.29434 13.1548 7.87498 12.6682C7.45991 12.1866 7.10294 11.6874 6.92576 11.1155C6.73392 10.4961 6.79088 9.92171 6.95653 9.36795C7.1091 8.85829 7.37891 8.29163 7.67137 7.67898C7.82984 7.34702 7.83978 7.08081 7.71385 6.71512C7.56143 6.27277 7.21854 5.72037 6.60789 4.89871C5.99405 4.07284 5.65295 3.82441 5.46971 3.76492Z" fill="#0E0E10"/>
<path d="M20.5796 1.82986C21.0189 1.39052 21.7311 1.39052 22.1704 1.82986C22.6097 2.2692 22.6097 2.98136 22.1704 3.42068L17.3408 8.25027H19.875C20.4963 8.25027 21 8.75395 21 9.37527C20.9999 9.99649 20.4962 10.5003 19.875 10.5003H14.625C14.0038 10.5002 13.5001 9.99645 13.5 9.37527V4.12527C13.5 3.504 14.0037 3.00035 14.625 3.00027C15.2463 3.00027 15.75 3.50395 15.75 4.12527V6.65945L20.5796 1.82986Z" fill="#0E0E10"/>
</svg>
