<svg width="16" height="16" viewBox="0 0 16 16" fill="none" xmlns="http://www.w3.org/2000/svg">
<path d="M8.40319 11.495C8.81631 11.5237 9.12776 11.8816 9.09925 12.2946C9.07057 12.7078 8.71278 13.0193 8.29961 12.9907L4.32559 12.7152C4.28065 12.7121 4.20316 12.7071 4.13293 12.6965C4.07204 12.6874 3.98726 12.6699 3.89331 12.6309L3.79664 12.5854L3.68201 12.5094C3.60911 12.4542 3.54386 12.389 3.48866 12.3161L3.4127 12.2014C3.3394 12.0701 3.31371 11.9462 3.30152 11.8651C3.29097 11.7948 3.28599 11.7173 3.28288 11.6725L3.00736 7.69845C2.97888 7.28547 3.29045 6.92763 3.70342 6.89881C4.11651 6.87021 4.47426 7.18181 4.50305 7.59487L4.75648 11.2416L8.40319 11.495Z" fill="#0E0E10"/>
<path d="M12.507 3.68438L12.583 3.79901L12.6286 3.89568C12.6675 3.98971 12.685 4.0744 12.6942 4.1353C12.7047 4.20561 12.7097 4.28304 12.7128 4.32796L12.9883 8.30198C13.0169 8.71515 12.7055 9.07294 12.2923 9.10162C11.8792 9.13009 11.5213 8.81866 11.4926 8.40556L11.2392 4.75885L7.5925 4.50542C7.17946 4.47661 6.86784 4.11886 6.89644 3.70578C6.92517 3.29275 7.28306 2.98127 7.69608 3.00973L11.6701 3.28525C11.7149 3.28836 11.7924 3.29334 11.8628 3.30389C11.9438 3.31608 12.0677 3.34176 12.1991 3.41507L12.3137 3.49103C12.3866 3.54625 12.4518 3.61145 12.507 3.68438Z" fill="#0E0E10"/>
</svg>
