<svg width="34" height="34" viewBox="0 0 34 34" fill="none" xmlns="http://www.w3.org/2000/svg">
<path d="M12.2493 5.53818V6.62933C12.2493 7.62004 11.4469 8.4224 10.4575 8.4224C9.46801 8.4224 8.66565 7.61878 8.66565 6.62933V5.53818C8.66565 4.54747 9.46801 3.74512 10.4575 3.74512C11.4469 3.74512 12.2493 4.54873 12.2493 5.53818Z" fill="#0E0E10" style="fill:#0E0E10;fill:color(display-p3 0.0549 0.0549 0.0627);fill-opacity:1;"/>
<path d="M25.3331 5.53818V6.62933C25.3331 7.62004 24.5307 8.4224 23.5413 8.4224C22.5518 8.4224 21.7495 7.61878 21.7495 6.62933V5.53818C21.7495 4.54747 22.5518 3.74512 23.5413 3.74512C24.5307 3.74512 25.3331 4.54873 25.3331 5.53818Z" fill="#0E0E10" style="fill:#0E0E10;fill:color(display-p3 0.0549 0.0549 0.0627);fill-opacity:1;"/>
<path d="M8.97831 22.0675V28.4612C8.97831 29.4519 8.17595 30.2543 7.18651 30.2543C6.19706 30.2543 5.3947 29.4519 5.3947 28.4612V22.0675C5.3947 21.0768 6.19706 20.2744 7.18651 20.2744C8.17595 20.2744 8.97831 21.078 8.97831 22.0675Z" fill="#0E0E10" style="fill:#0E0E10;fill:color(display-p3 0.0549 0.0549 0.0627);fill-opacity:1;"/>
<path d="M15.5202 22.0675V28.4612C15.5202 29.4519 14.7179 30.2543 13.7284 30.2543C12.739 30.2543 11.9366 29.4519 11.9366 28.4612V22.0675C11.9366 21.0768 12.739 20.2744 13.7284 20.2744C14.7179 20.2744 15.5202 21.078 15.5202 22.0675Z" fill="#0E0E10" style="fill:#0E0E10;fill:color(display-p3 0.0549 0.0549 0.0627);fill-opacity:1;"/>
<path d="M22.0621 22.0675V28.4612C22.0621 29.4519 21.2598 30.2543 20.2703 30.2543C19.2809 30.2543 18.4785 29.4519 18.4785 28.4612V22.0675C18.4785 21.0768 19.2809 20.2744 20.2703 20.2744C21.2598 20.2744 22.0621 21.078 22.0621 22.0675Z" fill="#0E0E10" style="fill:#0E0E10;fill:color(display-p3 0.0549 0.0549 0.0627);fill-opacity:1;"/>
<path d="M28.604 22.0675V28.4612C28.604 29.4519 27.8017 30.2543 26.8135 30.2543C25.8253 30.2543 25.0217 29.4519 25.0217 28.4612V22.0675C25.0217 21.0768 25.824 20.2744 26.8135 20.2744C27.8029 20.2744 28.604 21.078 28.604 22.0675Z" fill="#0E0E10" style="fill:#0E0E10;fill:color(display-p3 0.0549 0.0549 0.0627);fill-opacity:1;"/>
<path d="M31.8737 14.1142V17.3651C31.8737 18.3558 31.0714 19.1582 30.0832 19.1582C29.095 19.1582 28.2926 18.3545 28.2926 17.3651V14.4256C28.2926 13.607 27.6309 12.944 26.8135 12.944C25.9961 12.944 25.3343 13.607 25.3343 14.4256V18.6358C25.3343 19.6265 24.532 20.4289 23.5425 20.4289C22.5531 20.4289 21.7507 19.6253 21.7507 18.6358V14.4256C21.7507 13.607 21.089 12.944 20.2716 12.944C19.4542 12.944 18.7924 13.607 18.7924 14.4256V17.3651C18.7924 18.3558 17.9901 19.1582 17.0006 19.1582C16.0112 19.1582 15.2088 18.3545 15.2088 17.3651V14.4256C15.2088 13.607 14.5471 12.944 13.7297 12.944C12.9122 12.944 12.2505 13.607 12.2505 14.4256V18.6358C12.2505 19.6265 11.4482 20.4289 10.4587 20.4289C9.46927 20.4289 8.66691 19.6253 8.66691 18.6358V14.4256C8.66691 13.607 8.00519 12.944 7.18776 12.944C6.37034 12.944 5.70861 13.607 5.70861 14.4256V17.3651C5.70861 18.3558 4.90625 19.1582 3.91806 19.1582C2.92987 19.1582 2.125 18.3558 2.125 17.3664V14.1155C2.125 13.1248 2.92736 12.3224 3.91681 12.3224C4.73423 12.3224 5.39596 11.6594 5.39596 10.8408V10.5557C5.39596 9.56503 6.19831 8.76267 7.18776 8.76267C8.17721 8.76267 8.97957 9.56629 8.97957 10.5557V10.8408C8.97957 11.6594 9.64129 12.3224 10.4587 12.3224C11.2761 12.3224 11.9379 11.6594 11.9379 10.8408V10.5557C11.9379 9.56503 12.7402 8.76267 13.7297 8.76267C14.7191 8.76267 15.5215 9.56629 15.5215 10.5557V10.8408C15.5215 11.6594 16.1832 12.3224 17.0006 12.3224C17.8181 12.3224 18.4798 11.6594 18.4798 10.8408V10.5557C18.4798 9.56503 19.2821 8.76267 20.2716 8.76267C21.261 8.76267 22.0634 9.56629 22.0634 10.5557V10.8408C22.0634 11.6594 22.7251 12.3224 23.5425 12.3224C24.36 12.3224 25.0217 11.6594 25.0217 10.8408V10.5557C25.0217 9.56503 25.824 8.76267 26.8135 8.76267C27.8029 8.76267 28.6053 9.56629 28.6053 10.5557V10.8408C28.6053 11.6594 29.267 12.3224 30.0844 12.3224C31.0739 12.3224 31.875 13.126 31.875 14.1155L31.8737 14.1142Z" fill="#0E0E10" style="fill:#0E0E10;fill:color(display-p3 0.0549 0.0549 0.0627);fill-opacity:1;"/>
</svg>
