<svg width="87" height="87" viewBox="0 0 87 87" fill="none" xmlns="http://www.w3.org/2000/svg">
<g filter="url(#filter0_di_9_505)">
<rect x="8.64606" y="8.64526" width="69.1642" height="69.1642" rx="17.2911" fill="url(#paint0_linear_9_505)" style=""/>
</g>
<path d="M35.5479 24.5385V26.3184C35.5479 27.9331 34.2384 29.2427 32.6237 29.2427C31.009 29.2427 29.6995 27.9331 29.6995 26.3184V24.5385C29.6995 22.9238 31.009 21.6143 32.6237 21.6143C34.2384 21.6143 35.5479 22.9238 35.5479 24.5385Z" fill="black" style="fill:black;fill-opacity:1;"/>
<path d="M56.9077 24.5385V26.3184C56.9077 27.9331 55.5982 29.2427 53.9835 29.2427C52.3688 29.2427 51.0593 27.9331 51.0593 26.3184V24.5385C51.0593 22.9238 52.3688 21.6143 53.9835 21.6143C55.5982 21.6143 56.9077 22.9238 56.9077 24.5385Z" fill="black" style="fill:black;fill-opacity:1;"/>
<path d="M30.2084 51.4916V61.9171C30.2084 63.5318 28.8988 64.8413 27.2841 64.8413C25.6695 64.8413 24.3599 63.5318 24.3599 61.9171V51.4916C24.3599 49.8769 25.6695 48.5674 27.2841 48.5674C28.8988 48.5674 30.2084 49.8769 30.2084 51.4916Z" fill="black" style="fill:black;fill-opacity:1;"/>
<path d="M40.8878 51.4916V61.9171C40.8878 63.5318 39.5783 64.8413 37.9636 64.8413C36.3489 64.8413 35.0394 63.5318 35.0394 61.9171V51.4916C35.0394 49.8769 36.3489 48.5674 37.9636 48.5674C39.5783 48.5674 40.8878 49.8769 40.8878 51.4916Z" fill="black" style="fill:black;fill-opacity:1;"/>
<path d="M51.5678 51.4916V61.9171C51.5678 63.5318 50.2582 64.8413 48.6436 64.8413C47.0289 64.8413 45.7193 63.5318 45.7193 61.9171V51.4916C45.7193 49.8769 47.0289 48.5674 48.6436 48.5674C50.2582 48.5674 51.5678 49.8769 51.5678 51.4916Z" fill="black" style="fill:black;fill-opacity:1;"/>
<path d="M62.2472 51.4916V61.9171C62.2472 63.5318 60.9377 64.8413 59.323 64.8413C57.7083 64.8413 56.3988 63.5318 56.3988 61.9171V51.4916C56.3988 49.8769 57.7083 48.5674 59.323 48.5674C60.9377 48.5674 62.2472 49.8769 62.2472 51.4916Z" fill="black" style="fill:black;fill-opacity:1;"/>
<path d="M67.5875 38.5241V43.8259C67.5875 45.4405 66.2779 46.7501 64.6633 46.7501C63.0486 46.7501 61.739 45.4405 61.739 43.8259V39.0327C61.739 37.6977 60.6583 36.617 59.3234 36.617C57.9884 36.617 56.9077 37.6977 56.9077 39.0327V45.8982C56.9077 47.5129 55.5982 48.8225 53.9835 48.8225C52.3688 48.8225 51.0593 47.5129 51.0593 45.8982V39.0327C51.0593 37.6977 49.9786 36.617 48.6436 36.617C47.3086 36.617 46.2279 37.6977 46.2279 39.0327V43.8259C46.2279 45.4405 44.9184 46.7501 43.3037 46.7501C41.689 46.7501 40.3795 45.4405 40.3795 43.8259V39.0327C40.3795 37.6977 39.2988 36.617 37.9638 36.617C36.6289 36.617 35.5482 37.6977 35.5482 39.0327V45.8982C35.5482 47.5129 34.2386 48.8225 32.6239 48.8225C31.0093 48.8225 29.6997 47.5129 29.6997 45.8982V39.0327C29.6997 37.6977 28.619 36.617 27.2841 36.617C25.9491 36.617 24.8684 37.6977 24.8684 39.0327V43.8259C24.8684 45.4405 23.5589 46.7501 21.9442 46.7501C20.3295 46.7501 19.02 45.4405 19.02 43.8259V38.5241C19.02 36.9094 20.3295 35.5999 21.9442 35.5999C23.2792 35.5999 24.3598 34.5192 24.3598 33.1842V32.7189C24.3598 31.1042 25.6694 29.7947 27.2841 29.7947C28.8987 29.7947 30.2083 31.1042 30.2083 32.7189V33.1842C30.2083 34.5192 31.289 35.5999 32.6239 35.5999C33.9589 35.5999 35.0396 34.5192 35.0396 33.1842V32.7189C35.0396 31.1042 36.3492 29.7947 37.9638 29.7947C39.5785 29.7947 40.8881 31.1042 40.8881 32.7189V33.1842C40.8881 34.5192 41.9687 35.5999 43.3037 35.5999C44.6387 35.5999 45.7194 34.5192 45.7194 33.1842V32.7189C45.7194 31.1042 47.0289 29.7947 48.6436 29.7947C50.2583 29.7947 51.5678 31.1042 51.5678 32.7189V33.1842C51.5678 34.5192 52.6485 35.5999 53.9835 35.5999C55.3185 35.5999 56.3991 34.5192 56.3991 33.1842V32.7189C56.3991 31.1042 57.7087 29.7947 59.3234 29.7947C60.938 29.7947 62.2476 31.1042 62.2476 32.7189V33.1842C62.2476 34.5192 63.3283 35.5999 64.6633 35.5999C66.2779 35.5999 67.5875 36.9094 67.5875 38.5241Z" fill="black" style="fill:black;fill-opacity:1;"/>
<defs>
<filter id="filter0_di_9_505" x="5.18785" y="6.91616" width="76.0806" height="76.0807" filterUnits="userSpaceOnUse" color-interpolation-filters="sRGB">
<feFlood flood-opacity="0" result="BackgroundImageFix"/>
<feColorMatrix in="SourceAlpha" type="matrix" values="0 0 0 0 0 0 0 0 0 0 0 0 0 0 0 0 0 0 127 0" result="hardAlpha"/>
<feOffset dy="1.72911"/>
<feGaussianBlur stdDeviation="1.72911"/>
<feComposite in2="hardAlpha" operator="out"/>
<feColorMatrix type="matrix" values="0 0 0 0 0 0 0 0 0 0 0 0 0 0 0 0 0 0 0.1 0"/>
<feBlend mode="normal" in2="BackgroundImageFix" result="effect1_dropShadow_9_505"/>
<feBlend mode="normal" in="SourceGraphic" in2="effect1_dropShadow_9_505" result="shape"/>
<feColorMatrix in="SourceAlpha" type="matrix" values="0 0 0 0 0 0 0 0 0 0 0 0 0 0 0 0 0 0 127 0" result="hardAlpha"/>
<feOffset/>
<feGaussianBlur stdDeviation="1.72911"/>
<feComposite in2="hardAlpha" operator="arithmetic" k2="-1" k3="1"/>
<feColorMatrix type="matrix" values="0 0 0 0 1 0 0 0 0 1 0 0 0 0 1 0 0 0 1 0"/>
<feBlend mode="normal" in2="shape" result="effect2_innerShadow_9_505"/>
</filter>
<linearGradient id="paint0_linear_9_505" x1="43.2282" y1="8.64526" x2="43.2282" y2="77.8095" gradientUnits="userSpaceOnUse">
<stop stop-color="white" style="stop-color:white;stop-opacity:1;"/>
<stop offset="1" stop-color="#F7F7F7" style="stop-color:#F7F7F7;stop-color:color(display-p3 0.9674 0.9674 0.9674);stop-opacity:1;"/>
</linearGradient>
</defs>
</svg>
