<svg width="16" height="16" viewBox="0 0 16 16" fill="none" xmlns="http://www.w3.org/2000/svg">
<g clip-path="url(#clip0_9_474)">
<path d="M1.04019 13.2956C0.563855 13.2956 0.195487 12.9273 0.195487 12.4573V8.799C0.195487 7.72565 0.411427 7.12864 1.00209 6.3665L1.53559 5.67422C1.77058 4.53101 2.18976 3.33064 2.41205 2.86065C2.74866 2.14297 3.40919 1.70473 4.25389 1.60311C4.67942 1.55231 6.07033 1.5142 7.70894 1.5142C9.35389 1.5142 10.7448 1.54595 11.1703 1.60311C12.015 1.71744 12.6692 2.14297 13.0122 2.86065C13.2281 3.33064 13.6536 4.53101 13.8823 5.67422L14.4221 6.3665C15.0064 7.12864 15.2224 7.72565 15.2224 8.799V12.4573C15.2224 12.9273 14.8604 13.2956 14.384 13.2956H13.6346C13.1582 13.2956 12.7962 12.9273 12.7962 12.4573V11.3966C11.3863 11.4856 9.34119 11.5491 7.70894 11.5491C6.07668 11.5491 4.03795 11.4856 2.62799 11.3966V12.4573C2.62799 12.9273 2.25962 13.2956 1.78328 13.2956H1.04019ZM2.81853 5.14072C2.76136 5.37572 2.85663 5.46463 3.10433 5.45193C4.15862 5.38207 5.41616 5.31856 7.70894 5.31856C10.0081 5.31856 11.2656 5.38207 12.3199 5.45193C12.5612 5.46463 12.6629 5.37572 12.6057 5.14072C12.4406 4.44844 12.1484 3.53387 11.9325 3.17186C11.7546 2.87335 11.5768 2.74633 11.2338 2.69552C10.7575 2.6193 9.6778 2.58755 7.70894 2.58755C5.74642 2.58755 4.66672 2.63201 4.18403 2.69552C3.84107 2.73998 3.65688 2.87335 3.4854 3.17186C3.27581 3.54023 2.9646 4.44844 2.81853 5.14072ZM3.12973 9.83425C3.70769 9.83425 4.15227 9.38966 4.15227 8.81171C4.15227 8.2274 3.70769 7.78917 3.12973 7.78917C2.55178 7.78917 2.10719 8.2274 2.10719 8.81171C2.10719 9.38966 2.55178 9.83425 3.12973 9.83425ZM12.2881 9.83425C12.8724 9.83425 13.3107 9.38966 13.3107 8.81171C13.3107 8.2274 12.8724 7.78917 12.2881 7.78917C11.7102 7.78917 11.2719 8.2274 11.2719 8.81171C11.2719 9.38966 11.7102 9.83425 12.2881 9.83425ZM6.03222 9.5802H9.392C9.82388 9.5802 10.1224 9.28169 10.1224 8.84346C10.1224 8.41158 9.82388 8.11308 9.392 8.11308H6.03222C5.59399 8.11308 5.29549 8.41158 5.29549 8.84346C5.29549 9.28169 5.59399 9.5802 6.03222 9.5802Z" fill="white" style="fill:white;fill-opacity:1;"/>
</g>
<defs>
<clipPath id="clip0_9_474">
<rect width="15.4179" height="15.4179" fill="white" style="fill:white;fill-opacity:1;"/>
</clipPath>
</defs>
</svg>
