<svg width="16" height="16" viewBox="0 0 16 16" fill="none" xmlns="http://www.w3.org/2000/svg">
<path d="M7.70894 0.963623C11.4628 0.963623 14.6952 3.32495 14.6952 6.76132C14.6951 10.0187 11.7772 12.4218 8.25473 12.6324C8.14485 12.639 8.07231 12.6436 8.01759 12.6484C7.99133 12.6507 7.97355 12.6532 7.96113 12.655C7.95003 12.6566 7.94514 12.6569 7.94514 12.6569C7.91502 12.6644 7.90657 12.668 7.90373 12.6691C7.90104 12.6701 7.89234 12.673 7.86421 12.6879C7.86421 12.6879 7.86119 12.6896 7.85103 12.6964C7.84042 12.7035 7.82546 12.7142 7.80398 12.7303C7.75928 12.7638 7.70146 12.8104 7.61389 12.8799C5.84783 14.2816 4.14166 14.4542 3.40277 14.4543C3.2601 14.4543 3.08933 14.4301 2.93508 14.3338C2.76339 14.2266 2.66386 14.0622 2.62924 13.8878C2.59834 13.7317 2.62179 13.5843 2.65183 13.4718C2.68311 13.3547 2.73127 13.2391 2.78451 13.1321C2.99053 12.718 3.37291 12.2269 3.67191 11.8598C3.73259 11.7853 3.77143 11.7328 3.80083 11.6942C3.75285 11.6639 3.68769 11.6235 3.5891 11.5662C1.8652 10.5651 0.722763 8.8436 0.722713 6.76132C0.722713 3.32495 3.95503 0.963623 7.70894 0.963623Z" fill="white" style="fill:white;fill-opacity:1;"/>
</svg>
