<svg width="24" height="24" viewBox="0 0 24 24" fill="none" xmlns="http://www.w3.org/2000/svg">
<path fill-rule="evenodd" clip-rule="evenodd" d="M12 1.125C17.9692 1.125 23.25 4.89573 23.25 10.5249C23.2499 15.8522 18.4899 19.7029 12.873 20.0391C12.6996 20.0494 12.5915 20.0556 12.5127 20.0625C12.4325 20.0696 12.4309 20.0737 12.4585 20.0669C12.4178 20.077 12.4208 20.0773 12.4365 20.0713C12.4525 20.0652 12.455 20.0631 12.4175 20.083C12.4432 20.0693 12.4397 20.0671 12.3735 20.1167C12.3091 20.165 12.2228 20.2329 12.085 20.3423C9.25094 22.5915 6.50444 22.8749 5.29688 22.875C5.03666 22.875 4.69164 22.8313 4.36963 22.6304C4.00722 22.4039 3.79728 22.0551 3.7251 21.6914C3.66144 21.3704 3.7102 21.078 3.76465 20.874C3.82199 20.6593 3.90945 20.4549 3.99902 20.2749C4.3254 19.6189 4.90524 18.8646 5.35986 18.3032C2.59742 16.6827 0.750076 13.8995 0.75 10.5249C0.75 4.89573 6.03075 1.125 12 1.125ZM12 3.375C6.78548 3.375 3 6.57569 3 10.5249C3.00008 13.0185 4.35081 15.118 6.52881 16.3828C6.70783 16.4868 6.90243 16.5987 7.05762 16.7065C7.17589 16.7888 7.33465 16.9098 7.47656 17.0859L7.61133 17.2822L7.68311 17.4199C7.83711 17.7467 7.88678 18.1064 7.82666 18.4673C7.77428 18.7816 7.6352 19.0209 7.5249 19.1836C7.42186 19.3356 7.28682 19.5003 7.16895 19.645C6.9308 19.9374 6.69531 20.2357 6.49365 20.5151C7.57853 20.3279 9.1039 19.8357 10.686 18.5801C10.9035 18.4075 11.1407 18.2131 11.3628 18.0952C11.5571 17.9922 11.7031 17.9358 11.9165 17.8828C12.1607 17.8222 12.465 17.8098 12.7383 17.7935C17.5518 17.5056 20.9999 14.3113 21 10.5249C21 6.57569 17.2145 3.375 12 3.375Z" fill="#FFFFFF"/>
</svg>
