<svg width="20" height="20" viewBox="0 0 20 20" fill="none" xmlns="http://www.w3.org/2000/svg">
<path opacity="0.7" d="M8.1345 15.8877C7.7539 15.8877 7.4304 15.7235 7.16398 15.3953L3.46745 10.8424C3.36278 10.7187 3.28667 10.5974 3.23909 10.4785C3.19627 10.3595 3.17487 10.2358 3.17487 10.1074C3.17487 9.82194 3.27001 9.58644 3.46031 9.4009C3.65061 9.21536 3.89086 9.12259 4.18106 9.12259C4.50933 9.12259 4.78526 9.26294 5.00886 9.54363L8.10595 13.4685L14.1503 3.89179C14.274 3.70149 14.4024 3.56828 14.5356 3.49216C14.6688 3.41129 14.8353 3.37085 15.0352 3.37085C15.3254 3.37085 15.5632 3.46124 15.7488 3.64202C15.9343 3.82281 16.0271 4.05354 16.0271 4.33423C16.0271 4.44841 16.0081 4.56259 15.97 4.67677C15.9319 4.79095 15.8725 4.90988 15.7916 5.03357L9.11215 15.3667C8.88379 15.714 8.55791 15.8877 8.1345 15.8877Z" fill="#0E0E10" style="fill:#0E0E10;fill:color(display-p3 0.0549 0.0549 0.0627);fill-opacity:1;"/>
</svg>
