<svg width="28" height="28" viewBox="0 0 28 28" fill="none" xmlns="http://www.w3.org/2000/svg">
<path fill-rule="evenodd" clip-rule="evenodd" d="M14 1.3125C21.0071 1.3125 26.6875 6.99289 26.6875 14C26.6875 21.0071 21.0071 26.6875 14 26.6875C6.99289 26.6875 1.3125 21.0071 1.3125 14C1.3125 6.99289 6.99289 1.3125 14 1.3125ZM14.928 7.82202C14.4474 7.34147 13.6867 7.3109 13.1711 7.73145L13.072 7.82202L8.69702 12.197C8.18446 12.7096 8.18446 13.5404 8.69702 14.053C9.20959 14.5655 10.0404 14.5655 10.553 14.053L12.6875 11.9185V19.25C12.6875 19.9749 13.2751 20.5625 14 20.5625C14.7249 20.5625 15.3125 19.9749 15.3125 19.25V11.9185L17.447 14.053C17.9596 14.5655 18.7904 14.5655 19.303 14.053C19.8155 13.5404 19.8155 12.7096 19.303 12.197L14.928 7.82202Z" fill="#FFFFFF"/>
</svg>
