<svg width="24" height="24" viewBox="0 0 24 24" fill="none" xmlns="http://www.w3.org/2000/svg">
<path d="M11.625 11.25C12.2463 11.25 12.75 11.7537 12.75 12.375C12.75 12.9963 12.2463 13.5 11.625 13.5H7.875C7.25368 13.5 6.75 12.9963 6.75 12.375C6.75 11.7537 7.25368 11.25 7.875 11.25H11.625Z" fill="#FFFFFF"/>
<path d="M16.125 6.75C16.7463 6.75 17.25 7.25368 17.25 7.875C17.25 8.49632 16.7463 9 16.125 9H7.875C7.25368 9 6.75 8.49632 6.75 7.875C6.75 7.25368 7.25368 6.75 7.875 6.75H16.125Z" fill="#FFFFFF"/>
<path fill-rule="evenodd" clip-rule="evenodd" d="M12.9756 1.5C14.4268 1.5 15.5829 1.4986 16.5146 1.57471C17.4597 1.65192 18.273 1.81396 19.0195 2.19434C20.219 2.80552 21.1945 3.781 21.8057 4.98047C22.186 5.72701 22.3481 6.54034 22.4253 7.48535C22.5014 8.41708 22.5 9.57322 22.5 11.0244V12.9756C22.5 14.4268 22.5014 15.5829 22.4253 16.5146C22.3481 17.4597 22.186 18.273 21.8057 19.0195C21.1945 20.219 20.219 21.1945 19.0195 21.8057C18.273 22.186 17.4597 22.3481 16.5146 22.4253C15.5829 22.5014 14.4268 22.5 12.9756 22.5H11.0244C9.57324 22.5 8.41707 22.5014 7.48535 22.4253C6.54035 22.3481 5.72701 22.186 4.98047 21.8057C3.781 21.1945 2.80552 20.219 2.19434 19.0195C1.81395 18.273 1.65192 17.4597 1.57471 16.5146C1.4986 15.5829 1.5 14.4268 1.5 12.9756V11.0244C1.5 9.57322 1.4986 8.41708 1.57471 7.48535C1.65192 6.54034 1.81395 5.72701 2.19434 4.98047C2.80552 3.781 3.781 2.80552 4.98047 2.19434C5.72701 1.81397 6.54035 1.65192 7.48535 1.57471C8.41707 1.4986 9.57324 1.5 11.0244 1.5H12.9756ZM11.0244 3.75C9.53609 3.75 8.48735 3.75049 7.66846 3.81738C6.86294 3.8832 6.37935 4.00802 6.00293 4.19971C5.22677 4.59518 4.59519 5.22677 4.19971 6.00293C4.00801 6.37936 3.8832 6.86292 3.81738 7.66846C3.75048 8.48735 3.75 9.53607 3.75 11.0244V12.9756C3.75 14.4639 3.75048 15.5127 3.81738 16.3315C3.8832 17.1371 4.00801 17.6206 4.19971 17.9971C4.59519 18.7732 5.22677 19.4048 6.00293 19.8003C6.37935 19.992 6.86294 20.1168 7.66846 20.1826C8.48735 20.2495 9.53609 20.25 11.0244 20.25H12.9756C14.4639 20.25 15.5127 20.2495 16.3315 20.1826C17.1371 20.1168 17.6207 19.992 17.9971 19.8003C18.7732 19.4048 19.4048 18.7732 19.8003 17.9971C19.992 17.6206 20.1168 17.1371 20.1826 16.3315C20.2495 15.5127 20.25 14.4639 20.25 12.9756V11.0244C20.25 9.53607 20.2495 8.48735 20.1826 7.66846C20.1168 6.86293 19.992 6.37935 19.8003 6.00293C19.4048 5.22677 18.7732 4.59519 17.9971 4.19971C17.6207 4.00801 17.1371 3.8832 16.3315 3.81738C15.5127 3.75048 14.4639 3.75 12.9756 3.75H11.0244Z" fill="#FFFFFF"/>
</svg>
