<svg width="24" height="24" viewBox="0 0 24 24" fill="none" xmlns="http://www.w3.org/2000/svg">
<path fill-rule="evenodd" clip-rule="evenodd" d="M18.3416 3.03187C19.3942 3.16738 20.354 3.71574 21.0692 4.4308C21.7842 5.14589 22.3325 6.10582 22.4681 7.15833C22.6083 8.24921 22.2927 9.3858 21.3709 10.3077L10.4329 21.2457C9.86251 21.8159 9.10779 22.1463 8.30598 22.2037L4.20588 22.4967C3.88042 22.52 3.56064 22.4008 3.3299 22.1701C3.09936 21.9393 2.97996 21.6194 3.00324 21.2941L3.29621 17.194C3.35373 16.3923 3.68413 15.6373 4.25422 15.067L15.1922 4.12904C16.1141 3.20724 17.2508 2.89164 18.3416 3.03187ZM5.84504 16.6578C5.67571 16.8274 5.56108 17.0672 5.54035 17.3551L5.33967 20.1588L8.14484 19.9596C8.43294 19.939 8.67247 19.8243 8.84211 19.6549L17.5784 10.9186L14.5814 7.92152L5.84504 16.6578ZM18.0545 5.26283C17.6218 5.20727 17.1886 5.31442 16.783 5.71986L16.1722 6.3307L19.1693 9.32777L19.7801 8.71693C20.1856 8.31135 20.2927 7.87822 20.2371 7.44544C20.1763 6.97419 19.9098 6.45314 19.4783 6.02162C19.0467 5.59012 18.5258 5.32351 18.0545 5.26283Z" fill="#FFFFFF"/>
<path d="M5.57258 1.50111C5.67342 1.49522 5.75907 1.52522 5.82014 1.56117C5.9301 1.62623 6.00186 1.72882 6.04426 1.79994C6.09162 1.87955 6.13138 1.97127 6.16437 2.06214L6.44269 2.81361C6.52573 3.0361 6.60127 3.23317 6.6756 3.40541C6.82444 3.74999 6.97359 4.01129 7.17219 4.21986C7.47082 4.53272 7.87822 4.71988 8.55207 4.91126L9.33723 5.11341C9.44032 5.14378 9.61415 5.21034 9.70197 5.37855C9.81501 5.59702 9.7012 5.78813 9.63752 5.86488C9.57005 5.94568 9.48054 6.00588 9.41486 6.04505C9.34367 6.08747 9.26853 6.12367 9.20392 6.15052C8.64683 6.3559 8.19717 6.51375 7.85334 6.66175C7.50822 6.8104 7.24633 6.95808 7.03742 7.15687C6.61977 7.55452 6.42782 8.14592 6.1468 9.3014C6.12013 9.40958 6.06401 9.58473 5.91096 9.68373C5.81951 9.74249 5.71238 9.76198 5.61066 9.74378C5.51877 9.72711 5.44766 9.68253 5.40266 9.6471C5.31602 9.57871 5.25325 9.48579 5.21223 9.41566C5.16793 9.33971 5.13014 9.25592 5.10236 9.17982C4.93147 8.71637 4.77938 8.27237 4.5926 7.83949C4.44344 7.49405 4.29598 7.23057 4.09748 7.0221C3.69939 6.60469 3.10819 6.41381 1.95002 6.13441C1.84252 6.10799 1.66901 6.05108 1.56916 5.90003C1.5094 5.80913 1.48825 5.70132 1.50617 5.59828C1.52261 5.50576 1.56751 5.43519 1.60285 5.39027C1.67145 5.30328 1.7633 5.23915 1.83283 5.19837C1.90872 5.15391 1.992 5.11675 2.06721 5.08851C2.62804 4.88168 3.06828 4.73021 3.4134 4.58167C3.75907 4.43283 4.02064 4.28496 4.22932 4.08656C4.64503 3.69082 4.84228 3.08246 5.12141 1.93617C5.15383 1.83141 5.21006 1.69575 5.32062 1.60218C5.38375 1.54909 5.46958 1.50722 5.57258 1.50111Z" fill="#FFFFFF"/>
</svg>
