<svg width="15" height="15" viewBox="0 0 15 15" fill="none" xmlns="http://www.w3.org/2000/svg">
<g opacity="0.8">
<path d="M2.59317 8.20041C2.00449 8.20041 1.52728 7.7232 1.52728 7.13453C1.52728 6.54586 2.00449 6.06864 2.59317 6.06864L11.6758 6.06864C12.2645 6.06864 12.7417 6.54586 12.7417 7.13453C12.7417 7.7232 12.2645 8.20041 11.6758 8.20041L2.59317 8.20041Z" fill="#0E0E10" style="fill:#0E0E10;fill:color(display-p3 0.0549 0.0549 0.0627);fill-opacity:1;"/>
<path d="M8.19958 11.6826C8.19958 12.2708 7.72272 12.7477 7.13449 12.7477C6.54625 12.7477 6.0694 12.2708 6.0694 11.6826L6.0694 2.58645C6.0694 1.99822 6.54625 1.52136 7.13449 1.52136C7.72272 1.52136 8.19958 1.99822 8.19958 2.58645L8.19958 11.6826Z" fill="#0E0E10" style="fill:#0E0E10;fill:color(display-p3 0.0549 0.0549 0.0627);fill-opacity:1;"/>
</g>
</svg>
