<svg width="24" height="24" viewBox="0 0 24 24" fill="none" xmlns="http://www.w3.org/2000/svg">
<path d="M9.375 3.75C9.99632 3.75 10.5 4.25368 10.5 4.875V19.125C10.5 19.7463 9.99632 20.25 9.375 20.25C8.75368 20.25 8.25 19.7463 8.25 19.125V4.875C8.25 4.25368 8.75368 3.75 9.375 3.75Z" fill="#0E0E10"/>
<path d="M14.625 6.75C15.2463 6.75 15.75 7.25368 15.75 7.875V16.125C15.75 16.7463 15.2463 17.25 14.625 17.25C14.0037 17.25 13.5 16.7463 13.5 16.125V7.875C13.5 7.25368 14.0037 6.75 14.625 6.75Z" fill="#0E0E10"/>
<path d="M4.125 9C4.74632 9 5.25 9.50368 5.25 10.125V13.875C5.25 14.4963 4.74632 15 4.125 15C3.50368 15 3 14.4963 3 13.875V10.125C3 9.50368 3.50368 9 4.125 9Z" fill="#0E0E10"/>
<path d="M19.875 9C20.4963 9 21 9.50368 21 10.125V13.875C21 14.4963 20.4963 15 19.875 15C19.2537 15 18.75 14.4963 18.75 13.875V10.125C18.75 9.50368 19.2537 9 19.875 9Z" fill="#0E0E10"/>
</svg>
