<svg width="17" height="17" viewBox="0 0 17 17" fill="none" xmlns="http://www.w3.org/2000/svg">
<g clip-path="url(#clip0_601_6501)">
<path d="M6.14093 2.66713V3.23196C6.14093 3.74479 5.7256 4.16013 5.21341 4.16013C4.70123 4.16013 4.28589 3.74414 4.28589 3.23196V2.66713C4.28589 2.15429 4.70123 1.73895 5.21341 1.73895C5.7256 1.73895 6.14093 2.15494 6.14093 2.66713Z" fill="black"/>
<path d="M12.9139 2.66713V3.23196C12.9139 3.74479 12.4985 4.16013 11.9864 4.16013C11.4742 4.16013 11.0588 3.74414 11.0588 3.23196V2.66713C11.0588 2.15429 11.4742 1.73895 11.9864 1.73895C12.4985 1.73895 12.9139 2.15494 12.9139 2.66713Z" fill="black"/>
<path d="M4.44782 11.2229V14.5326C4.44782 15.0454 4.03248 15.4607 3.5203 15.4607C3.00811 15.4607 2.59277 15.0454 2.59277 14.5326V11.2229C2.59277 10.71 3.00811 10.2947 3.5203 10.2947C4.03248 10.2947 4.44782 10.7107 4.44782 11.2229Z" fill="black"/>
<path d="M7.83405 11.2229V14.5326C7.83405 15.0454 7.41871 15.4607 6.90653 15.4607C6.39434 15.4607 5.979 15.0454 5.979 14.5326V11.2229C5.979 10.71 6.39434 10.2947 6.90653 10.2947C7.41871 10.2947 7.83405 10.7107 7.83405 11.2229Z" fill="black"/>
<path d="M11.2208 11.2229V14.5326C11.2208 15.0454 10.8054 15.4607 10.2932 15.4607C9.78106 15.4607 9.36572 15.0454 9.36572 14.5326V11.2229C9.36572 10.71 9.78106 10.2947 10.2932 10.2947C10.8054 10.2947 11.2208 10.7107 11.2208 11.2229Z" fill="black"/>
<path d="M14.6071 11.2229V14.5326C14.6071 15.0454 14.1917 15.4607 13.6802 15.4607C13.1687 15.4607 12.7527 15.0454 12.7527 14.5326V11.2229C12.7527 10.71 13.168 10.2947 13.6802 10.2947C14.1924 10.2947 14.6071 10.7107 14.6071 11.2229Z" fill="black"/>
<path d="M16.2997 7.10658V8.78938C16.2997 9.30222 15.8844 9.71756 15.3729 9.71756C14.8613 9.71756 14.446 9.30157 14.446 8.78938V7.26778C14.446 6.84399 14.1035 6.5008 13.6803 6.5008C13.2572 6.5008 12.9146 6.84399 12.9146 7.26778V9.44717C12.9146 9.96 12.4993 10.3753 11.9871 10.3753C11.4749 10.3753 11.0596 9.95935 11.0596 9.44717V7.26778C11.0596 6.84399 10.7171 6.5008 10.2939 6.5008C9.87078 6.5008 9.52824 6.84399 9.52824 7.26778V8.78938C9.52824 9.30222 9.1129 9.71756 8.60072 9.71756C8.08853 9.71756 7.67319 9.30157 7.67319 8.78938V7.26778C7.67319 6.84399 7.33065 6.5008 6.90751 6.5008C6.48438 6.5008 6.14184 6.84399 6.14184 7.26778V9.44717C6.14184 9.96 5.7265 10.3753 5.21431 10.3753C4.70213 10.3753 4.28679 9.95935 4.28679 9.44717V7.26778C4.28679 6.84399 3.94425 6.5008 3.52111 6.5008C3.09798 6.5008 2.75544 6.84399 2.75544 7.26778V8.78938C2.75544 9.30222 2.3401 9.71756 1.82856 9.71756C1.31703 9.71756 0.900391 9.30222 0.900391 8.79003V7.10723C0.900391 6.5944 1.31573 6.17906 1.82791 6.17906C2.25105 6.17906 2.59359 5.83587 2.59359 5.41208V5.26454C2.59359 4.7517 3.00893 4.33636 3.52111 4.33636C4.0333 4.33636 4.44864 4.75235 4.44864 5.26454V5.41208C4.44864 5.83587 4.79118 6.17906 5.21431 6.17906C5.63745 6.17906 5.97999 5.83587 5.97999 5.41208V5.26454C5.97999 4.7517 6.39533 4.33636 6.90751 4.33636C7.4197 4.33636 7.83504 4.75235 7.83504 5.26454V5.41208C7.83504 5.83587 8.17758 6.17906 8.60072 6.17906C9.02385 6.17906 9.36639 5.83587 9.36639 5.41208V5.26454C9.36639 4.7517 9.78173 4.33636 10.2939 4.33636C10.8061 4.33636 11.2214 4.75235 11.2214 5.26454V5.41208C11.2214 5.83587 11.564 6.17906 11.9871 6.17906C12.4103 6.17906 12.7528 5.83587 12.7528 5.41208V5.26454C12.7528 4.7517 13.1681 4.33636 13.6803 4.33636C14.1925 4.33636 14.6078 4.75235 14.6078 5.26454V5.41208C14.6078 5.83587 14.9504 6.17906 15.3735 6.17906C15.8857 6.17906 16.3004 6.59505 16.3004 7.10723L16.2997 7.10658Z" fill="black"/>
</g>
<defs>
<clipPath id="clip0_601_6501">
<rect width="15.4" height="15.4" fill="white" transform="translate(0.900391 0.899719)"/>
</clipPath>
</defs>
</svg>
