<svg width="33" height="28" viewBox="0 0 33 28" fill="none" xmlns="http://www.w3.org/2000/svg">
<g clip-path="url(#clip0_831_6294)">
<path d="M18.5625 14.3071L21.7612 17.9633L26.0625 20.7121L26.8125 14.3296L26.0625 8.0896L21.6788 10.5046L18.5625 14.3071Z" fill="#00832D"/>
<path d="M0 20.1196V25.5571C0 26.8003 1.00688 27.8071 2.25 27.8071H7.6875L8.8125 23.6971L7.6875 20.1196L3.95625 18.9946L0 20.1196Z" fill="#0066DA"/>
<path d="M7.6875 0.807129L0 8.49463L3.95625 9.61963L7.6875 8.49463L8.79375 4.96588L7.6875 0.807129Z" fill="#E94235"/>
<path d="M7.6875 8.49463H0V20.1196H7.6875V8.49463Z" fill="#2684FC"/>
<path d="M30.975 4.06218L26.0625 8.08968V20.7122L30.9975 24.7584C31.7363 25.3359 32.8162 24.8091 32.8162 23.8697V4.93218C32.8162 3.98156 31.7119 3.46031 30.975 4.06218ZM18.5625 14.3072V20.1197H7.6875V27.8072H23.8125C25.0556 27.8072 26.0625 26.8003 26.0625 25.5572V20.7122L18.5625 14.3072Z" fill="#00AC47"/>
<path d="M23.8125 0.807129H7.6875V8.49463H18.5625V14.3071L26.0625 8.09338V3.05713C26.0625 1.814 25.0556 0.807129 23.8125 0.807129Z" fill="#FFBA00"/>
</g>
<defs>
<clipPath id="clip0_831_6294">
<rect width="32.8125" height="27" fill="white" transform="translate(0 0.807129)"/>
</clipPath>
</defs>
</svg>
